# xmcd CD database file
#
# Track frame offsets:
#	150
#	21622
#	41570
#	63082
#
# Disc length: 1101 seconds
#
# Revision: 0
# Processed by: cddbd v1.5.1PL0 Copyright (c) Steve Scherf et al.
# Submitted via: CDex 1.51
#
DISCID=2f044b04
DTITLE=大石秀一郎 - TWO
DYEAR=2005
DGENRE=Vocal
TTITLE0=TWO
TTITLE1=い〜じゃないか
TTITLE2=TWO （Original Karaoke）
TTITLE3=い〜じゃないか （Original Karaoke）
EXTD=YEAR: 2005
EXTT0=
EXTT1=
EXTT2=
EXTT3=
PLAYORDER=
